HIERARCHY
ROOT Hips
{
 OFFSET 0.000000 0.000000 0.000000
 CHANNELS 6 Xposition Yposition Zposition Yrotation Xrotation Zrotation
 JOINT Chest
 {
  OFFSET 0.000000 9.585900 0.002600
  CHANNELS 3 Yrotation Xrotation Zrotation
  JOINT Chest2
  {
   OFFSET 0.000000 9.601200 -0.005300
   CHANNELS 3 Yrotation Xrotation Zrotation
   JOINT Chest3
   {
    OFFSET 0.000000 9.561800 0.000000
    CHANNELS 3 Yrotation Xrotation Zrotation
    JOINT Chest4
    {
     OFFSET 0.000000 9.552100 0.000000
     CHANNELS 3 Yrotation Xrotation Zrotation
     JOINT Neck
     {
      OFFSET 0.000000 14.453000 0.000000
      CHANNELS 3 Yrotation Xrotation Zrotation
      JOINT Head
      {
       OFFSET 0.000000 8.936500 -0.011300
       CHANNELS 3 Yrotation Xrotation Zrotation
       End Site
       {
        OFFSET 0.000000 17.073600 -0.006000
       }
      }
     }
     JOINT RightCollar
     {
      OFFSET -2.921100 9.558500 0.000000
      CHANNELS 3 Yrotation Xrotation Zrotation
      JOINT RightShoulder
      {
       OFFSET -13.519700 0.000000 0.000000
       CHANNELS 3 Yrotation Xrotation Zrotation
       JOINT RightElbow
       {
        OFFSET 0.000000 -29.696600 0.000000
        CHANNELS 3 Yrotation Xrotation Zrotation
        JOINT RightWrist
        {
         OFFSET 0.000000 -24.004700 0.000000
         CHANNELS 3 Yrotation Xrotation Zrotation
         End Site
         {
          OFFSET 0.000000 -17.728500 0.000000
         }
        }
       }
      }
     }
     JOINT LeftCollar
     {
      OFFSET 2.921100 9.558500 0.000000
      CHANNELS 3 Yrotation Xrotation Zrotation
      JOINT LeftShoulder
      {
       OFFSET 13.519700 0.000000 0.000000
       CHANNELS 3 Yrotation Xrotation Zrotation
       JOINT LeftElbow
       {
        OFFSET 0.000000 -29.696600 0.000000
        CHANNELS 3 Yrotation Xrotation Zrotation
        JOINT LeftWrist
        {
         OFFSET 0.000000 -24.004700 0.000000
         CHANNELS 3 Yrotation Xrotation Zrotation
         End Site
         {
          OFFSET 0.000000 -17.728500 0.000000
         }
        }
       }
      }
     }
    }
   }
  }
 }
 JOINT RightHip
 {
  OFFSET -7.771700 -0.012900 -0.001300
  CHANNELS 3 Yrotation Xrotation Zrotation
  JOINT RightKnee
  {
   OFFSET 0.000000 -40.869800 0.001200
   CHANNELS 3 Yrotation Xrotation Zrotation
   JOINT RightAnkle
   {
    OFFSET 0.000000 -39.717900 0.002100
    CHANNELS 3 Yrotation Xrotation Zrotation
    JOINT RightToe
    {
     OFFSET 0.000000 -4.965400 11.033500
     CHANNELS 3 Yrotation Xrotation Zrotation
     End Site
     {
      OFFSET 0.000000 -1.423100 5.872300
     }
    }
   }
  }
 }
 JOINT LeftHip
 {
  OFFSET 7.771700 -0.012900 -0.001300
  CHANNELS 3 Yrotation Xrotation Zrotation
  JOINT LeftKnee
  {
   OFFSET 0.000000 -40.869800 0.001200
   CHANNELS 3 Yrotation Xrotation Zrotation
   JOINT LeftAnkle
   {
    OFFSET 0.000000 -39.717900 0.002100
    CHANNELS 3 Yrotation Xrotation Zrotation
    JOINT LeftToe
    {
     OFFSET 0.000000 -4.965400 11.033500
     CHANNELS 3 Yrotation Xrotation Zrotation
     End Site
     {
      OFFSET 0.000000 -1.423100 5.872300
     }
    }
   }
  }
 }
}
MOTION
Frames: 11
Frame Time: 0.008333
0.000000 85.388000 0.000000 0.000000 -5.767877 0.000000 0.000000 11.653817 0.000000 0.000000 -5.885947 0.000000 0.000000 -0.000000 0.000000 0.000000 -0.000000 0.000000 0.000000 12.528835 0.000000 0.000000 0.711642 0.000000 0.000000 -0.000000 0.000000 0.000000 0.000000 -90.000000 0.000000 -2.309062 0.000000 0.000000 2.309062 0.000000 0.000000 -0.000000 0.000000 0.000000 -0.000000 90.000000 0.000000 -2.309062 0.000000 0.000000 2.309062 0.000000 0.000000 8.520406 0.000000 0.000000 1.905762 0.000000 -0.000000 -4.658285 0.000000 0.000000 -0.000000 0.000000 0.000000 8.520406 0.000000 0.000000 1.905762 0.000000 -0.000000 -4.658285 0.000000 0.000000 -0.000000 0.000000
-102.136430 57.011800 94.740802 -179.636847 -37.657721 -1.239696 1.708646 21.022720 1.728033 0.175581 2.780993 0.255843 0.243222 4.568915 0.388040 1.374721 17.994300 1.848968 5.344299 21.133598 -3.611667 10.704790 3.967654 -8.048141 5.750347 2.658989 -0.545838 14.606432 -26.729075 -23.458102 -175.676891 -46.387211 -162.301077 13.650363 -11.427422 -38.650382 -2.355380 -0.772282 -3.018536 2.736199 -13.543255 -2.306918 165.628681 -52.924419 172.771385 -4.287471 -11.522264 24.101426 12.239670 -38.038525 -9.077111 -17.244792 68.466715 -18.999862 11.054294 23.019139 10.959572 0.053853 -15.184442 3.551233 -8.325194 -35.826620 0.431187 28.240579 64.859643 23.250761 -16.861232 6.643874 -2.017254 0.084158 0.391519 0.005423
-102.142270 57.019698 94.734161 -179.666073 -37.652572 -1.276692 1.686658 21.053817 1.713102 0.135661 2.805492 0.222216 0.280114 4.552422 0.411598 1.412030 17.981430 1.868936 5.781432 21.206947 -3.610538 11.503577 4.144342 -8.152247 5.654114 2.644228 -0.505517 14.389423 -26.653911 -23.303052 -175.776754 -46.309038 -162.179966 13.668582 -11.445932 -38.842873 -2.392313 -0.807640 -2.949897 2.757543 -13.489542 -2.262381 165.615835 -52.928916 172.773388 -4.298466 -11.574172 24.194992 12.182306 -38.036704 -9.033018 -17.238182 68.436894 -18.950657 11.056291 23.033134 10.916723 0.070013 -15.197001 3.533109 -8.330961 -35.826085 0.472793 28.216552 64.877911 23.256268 -16.852307 6.635411 -2.020492 0.087637 0.390538 0.007582
-102.153484 57.030097 94.725100 -179.711724 -37.655119 -1.285610 1.679434 21.086869 1.686310 0.133477 2.807539 0.213047 0.300570 4.544581 0.423606 1.451693 17.965108 1.897388 6.222172 21.301503 -3.601591 12.325257 4.340598 -8.225911 5.524323 2.657293 -0.468452 14.172592 -26.554347 -23.153887 -175.834557 -46.257962 -162.104763 13.672527 -11.460185 -39.022803 -2.416526 -0.817713 -2.916630 2.775738 -13.453597 -2.190111 165.598021 -52.951466 172.752306 -4.254808 -11.593051 24.267855 12.142014 -38.022878 -9.003733 -17.185382 68.411897 -18.877536 11.077454 23.036342 10.885789 0.054154 -15.213105 3.528832 -8.273248 -35.821408 0.437934 28.195967 64.888967 23.310709 -16.793929 6.638847 -1.997843 0.058663 0.375556 -0.018303
-102.165201 57.038561 94.719547 -179.803919 -37.623631 -1.272232 1.719004 21.074832 1.670369 0.161662 2.798083 0.234981 0.291525 4.557211 0.404055 1.466257 17.959242 1.907255 6.699369 21.395673 -3.566797 13.134890 4.557631 -8.267878 5.416191 2.663205 -0.415384 13.968572 -26.429395 -23.006374 -175.862067 -46.233636 -162.072344 13.666332 -11.466015 -39.182847 -2.424058 -0.835503 -2.865321 2.836788 -13.431787 -2.121798 165.588761 -52.952582 172.746709 -4.267382 -11.568605 24.338333 12.127484 -38.047367 -8.961357 -17.063267 68.390815 -18.768048 11.097861 23.018018 10.893172 0.032948 -15.197383 3.508352 -8.171137 -35.847843 0.406754 28.192364 64.888594 23.388805 -16.736729 6.645510 -1.977924 0.018209 0.371303 -0.029951
-102.175986 57.047250 94.714772 -179.871320 -37.580323 -1.283566 1.726670 21.077429 1.622875 0.209040 2.763763 0.292549 0.298519 4.557202 0.404191 1.490064 17.986250 1.879990 7.145089 21.479134 -3.494933 13.888248 4.789937 -8.269312 5.317028 2.638305 -0.344262 13.754861 -26.274088 -22.845996 -175.880323 -46.232598 -162.069299 13.649377 -11.464098 -39.327461 -2.500420 -0.853914 -2.698171 2.989719 -13.435736 -2.147286 165.595399 -52.943934 172.726307 -4.264045 -11.594838 24.420558 12.077071 -38.085744 -8.913305 -16.996370 68.360202 -18.682660 11.091147 23.027885 10.830795 0.054891 -15.194093 3.505929 -8.097281 -35.881367 0.397579 28.205874 64.875417 23.470868 -16.705083 6.656992 -1.955532 -0.010246 0.363625 -0.045286
-102.184890 57.058676 94.707594 -179.949718 -37.552774 -1.298561 1.778357 21.083888 1.620298 0.200317 2.784739 0.259762 0.339780 4.512490 0.470103 1.538325 18.000337 1.873626 7.527378 21.583102 -3.421695 14.549197 5.020600 -8.225664 5.175363 2.631047 -0.277204 13.602813 -26.101308 -22.696444 -175.903178 -46.249580 -162.081873 13.624515 -11.455942 -39.470415 -2.563293 -0.863859 -2.575476 3.122949 -13.438519 -2.146324 165.609231 -52.923960 172.698734 -4.267699 -11.629129 24.513279 12.039377 -38.113675 -8.847356 -16.952825 68.332684 -18.618917 11.077783 23.056444 10.772929 0.035074 -15.234523 3.517885 -8.010469 -35.897289 0.390491 28.164603 64.882464 23.520758 -16.651729 6.644680 -1.948960 -0.037154 0.369101 -0.048245
-102.188197 57.069448 94.702626 179.964174 -37.509341 -1.337279 1.862135 21.067843 1.668476 0.213156 2.768749 0.279861 0.339789 4.527846 0.449429 1.610326 18.006033 1.883794 7.842762 21.673966 -3.328790 15.094034 5.233647 -8.145549 5.005948 2.616520 -0.194434 13.502059 -25.920682 -22.555644 -175.927898 -46.274493 -162.100009 13.597628 -11.444412 -39.617277 -2.619967 -0.893649 -2.493399 3.239914 -13.432904 -2.101642 165.502352 -52.895560 172.762021 -4.346809 -11.658739 24.614897 12.024533 -38.168333 -8.761217 -17.065063 68.294342 -18.652109 11.024489 23.125640 10.620231 0.112168 -15.269003 3.559550 -7.931605 -35.923417 0.417768 28.101647 64.888698 23.557328 -16.588072 6.624831 -1.938076 -0.072368 0.380886 -0.057838
-102.194835 57.082889 94.695235 179.881243 -37.486339 -1.349877 1.939159 21.072600 1.693558 0.222522 2.753271 0.296729 0.347472 4.543687 0.431158 1.667532 18.005158 1.901448 8.086313 21.765053 -3.240808 15.501607 5.420593 -8.038764 4.921706 2.590794 -0.145881 13.332431 -25.731517 -22.377856 -175.944957 -46.301761 -162.120370 13.574753 -11.433309 -39.763979 -2.669626 -0.917421 -2.422921 3.307109 -13.433341 -2.099150 165.510682 -52.882223 172.743377 -4.418471 -11.685071 24.721571 11.977422 -38.191029 -8.700453 -17.015443 68.263484 -18.570087 11.035633 23.156367 10.545804 0.120310 -15.286136 3.564867 -7.828384 -35.931276 0.405636 28.051336 64.892759 23.606815 -16.545787 6.610902 -1.922995 -0.087873 0.377609 -0.077129
-102.203123 57.097961 94.686786 179.821873 -37.475346 -1.356875 1.999415 21.087234 1.704566 0.218864 2.758537 0.294573 0.360300 4.544552 0.432992 1.701084 17.985660 1.925491 8.262101 21.863374 -3.168619 15.751619 5.575150 -7.909825 4.863173 2.582046 -0.115234 13.178866 -25.554378 -22.195030 -175.951046 -46.328317 -162.139672 13.565464 -11.426470 -39.907154 -2.697942 -0.915733 -2.347687 3.460341 -13.428435 -2.094015 165.638788 -52.866025 172.637306 -4.318650 -11.744353 24.788427 11.876271 -38.194933 -8.649589 -16.843295 68.237591 -18.405002 11.083064 23.169289 10.513895 0.068952 -15.326855 3.554625 -7.729331 -35.928518 0.366819 28.019067 64.888473 23.677508 -16.532050 6.600496 -1.923359 -0.091044 0.381510 -0.079047
-102.208267 57.113663 94.678666 179.793824 -37.468077 -1.391088 2.048302 21.101464 1.731172 0.231253 2.787825 0.263864 0.378869 4.540909 0.443694 1.760890 17.970003 1.957526 8.284578 21.873716 -3.098694 15.864754 5.732851 -7.738669 4.690591 2.559095 -0.036597 13.128685 -25.399942 -22.039408 -175.955943 -46.350448 -162.149697 13.575459 -11.421734 -40.041265 -2.760071 -0.927816 -2.231450 3.595003 -13.424339 -2.125938 165.661482 -52.851051 172.607505 -4.291544 -11.786148 24.858814 11.794405 -38.199123 -8.588026 -16.783807 68.214350 -18.327704 11.079030 23.216141 10.450709 0.074136 -15.375814 3.561229 -7.668218 -35.920209 0.337346 27.951954 64.882103 23.731358 -16.525695 6.586947 -1.959217 -0.066266 0.386770 -0.071522
